<svg width="394" height="56" viewBox="0 0 394 56" fill="none" xmlns="http://www.w3.org/2000/svg">
<g id="LOGO/APARTMENTS/2C">
<g id="Group">
<path id="Fill 1" fill-rule="evenodd" clip-rule="evenodd" d="M7.8783 12.3332L26.425 17.5475C26.7943 17.6525 27.2711 17.4829 27.4936 17.1718L34.2716 7.69769C34.4887 7.37569 34.4122 6.93314 34.0931 6.71381L24.4948 0.154033C24.1804 -0.0598561 23.6773 -0.049745 23.3667 0.176588L7.77553 11.7134C7.4626 11.9412 7.51205 12.2251 7.8783 12.3332ZM38.1203 3.70692L38.9865 23.2898C39.0004 23.6787 39.3072 24.0862 39.6657 24.2029L50.6061 27.8429C50.9754 27.9565 51.3626 27.7441 51.4723 27.3685L54.6287 16.0401C54.733 15.6699 54.5661 15.1838 54.2563 14.9551L38.6682 3.41214C38.3575 3.18348 38.1111 3.31648 38.1203 3.70692ZM55.5204 30.3388L37.5091 37.226C37.1514 37.3621 36.8616 37.7829 36.8616 38.171L36.8493 49.8867C36.8578 50.2794 37.1753 50.5944 37.5601 50.5851L49.1079 50.1418C49.4849 50.1239 49.8875 49.8151 50.0057 49.4457L55.9685 30.7767C56.0821 30.4041 55.8781 30.205 55.5204 30.3388ZM36.0341 55.4276L24.0397 40.1085C23.8064 39.8043 23.3196 39.6519 22.9587 39.7686L12.0114 43.3751C11.6474 43.505 11.4566 43.9071 11.5833 44.2789L15.5642 55.3311C15.6971 55.6936 16.1143 55.9868 16.4922 55.9876L35.7621 56C36.1484 55.9914 36.2698 55.7379 36.0341 55.4276ZM5.986 44.2136L0.0402061 25.543C-0.076469 25.1689 0.069568 24.6766 0.364733 24.437L9.4538 17.1632C9.76055 16.9221 10.1963 16.9882 10.4282 17.3001L17.1799 26.7914C17.4001 27.1048 17.4093 27.615 17.1984 27.9386L6.60183 44.3007C6.38316 44.6235 6.10963 44.5822 5.986 44.2136Z" fill="#6FB143"/>
</g>
<path id="Fill 40" fill-rule="evenodd" clip-rule="evenodd" d="M368.991 24.0151H369.959L371.392 28.2314L372.816 24.0151H373.78V29.0015H373.132V26.0586C373.132 25.9579 373.136 25.7879 373.142 25.5538C373.147 25.3171 373.147 25.0654 373.147 24.796L371.723 29.0015H371.053L369.616 24.796V24.9484C369.616 25.0695 369.618 25.2572 369.627 25.5062C369.631 25.7566 369.635 25.9416 369.635 26.0586V29.0015H368.991V24.0151ZM368.387 24.0151V24.6096H366.706V29.0015H366.022V24.6096H364.343V24.0151H368.387ZM355.444 23.6083C359.093 23.6083 361.365 25.7947 361.365 29.3376V40.3431C361.365 42.0751 362.631 42.2656 364.343 42.4914V43.9608H354.661V42.4914C356.376 42.2656 357.641 42.0751 357.641 40.3431V30.3185C357.641 27.8301 356.336 26.6613 353.954 26.6613C352.165 26.6613 349.97 27.6042 348.628 28.8845V40.3431C348.628 42.0751 349.895 42.2656 351.607 42.4914V43.9608H341.926V42.4914C343.638 42.2656 344.905 42.0751 344.905 40.3431V30.3185C344.905 27.8301 343.601 26.6613 341.218 26.6613C339.432 26.6613 337.232 27.6042 335.894 28.8845V40.3431C335.894 42.0751 337.16 42.2656 338.873 42.4914V43.9608H329.19V42.4914C330.905 42.2656 332.17 42.0751 332.17 40.3431V27.7171L329.377 26.3974V25.4926L334.777 23.6083H336.079L335.894 27.1906C337.271 25.4178 339.877 23.6083 342.707 23.6083C345.612 23.6083 347.698 24.9661 348.405 27.3416C349.782 25.4926 352.54 23.6083 355.444 23.6083ZM324.091 34.8805C324.091 30.0151 321.483 25.9457 317.016 25.9457C313.292 25.9457 311.43 28.962 311.43 33.0696C311.43 37.9322 314.036 42.003 318.506 42.003C322.23 42.003 324.091 38.9866 324.091 34.8805ZM307.483 34.3498C307.483 27.7539 312.398 23.6083 318.133 23.6083C324.016 23.6083 328.039 27.7933 328.039 33.5961C328.039 40.1907 323.122 44.3377 317.387 44.3377C311.503 44.3377 307.483 40.154 307.483 34.3498ZM297.999 41.0588C301.089 41.0588 303.175 39.6261 304.404 38.0805L305.484 38.5717C304.665 41.3227 302.095 44.3377 296.844 44.3377C290.403 44.3377 287.349 39.4383 287.349 34.6152C287.349 27.943 291.891 23.6083 298.074 23.6083C302.393 23.6083 305.073 25.7212 305.073 28.509C305.073 29.6763 304.478 30.5444 303.623 30.9212H301.089V29.3757C301.089 27.0396 300.009 25.7947 297.329 25.7947C293.605 25.7947 290.926 28.4722 290.926 33.1811C290.926 38.0438 293.382 41.0588 297.999 41.0588ZM283.081 39.4125C284.44 39.4125 285.518 40.5037 285.518 41.8792C285.518 43.2561 284.44 44.3459 283.081 44.3459C281.719 44.3459 280.641 43.2561 280.641 41.8792C280.641 40.5037 281.719 39.4125 283.081 39.4125ZM262.969 42.3771L262.746 37.373H264.305C265.09 40.6071 266.835 42.3418 269.92 42.3418C272.524 42.3418 274.084 41.1744 274.084 38.9921C274.084 37.1853 272.821 36.4696 270.704 35.8301L268.1 35.0016C264.975 34.0247 263.043 32.7458 263.043 29.3212C263.043 25.8205 265.72 23.6395 269.92 23.6395C272.56 23.6395 274.568 24.2423 276.315 25.2586V29.9226H274.754C274.16 26.875 272.56 25.6328 269.81 25.6328C267.803 25.6328 266.39 26.5743 266.39 28.5307C266.39 30.1117 267.282 30.7906 269.139 31.3906L272.079 32.294C275.572 33.3471 277.469 34.7757 277.469 38.3499C277.469 42.0751 274.459 44.335 269.92 44.335C266.909 44.335 264.493 43.5064 262.969 42.3771ZM243.026 30.3376C243.026 27.5498 241.577 26.6858 239.123 26.6858C237.117 26.6858 234.551 27.7416 232.988 29.0178V40.3458C232.988 42.0751 234.255 42.2656 235.962 42.4914V43.9581H226.297V42.4914C228.007 42.2656 229.27 42.0751 229.27 40.3458V27.7416L226.482 26.4232V25.5198L231.871 23.6395H233.176L232.988 27.3253C234.622 25.5198 237.599 23.6395 240.535 23.6395C244.183 23.6395 246.745 25.4069 246.745 29.8097V40.3458C246.745 42.0751 248.007 42.2656 249.72 42.4914V43.9581H240.053V42.4914C241.764 42.2656 243.026 42.0751 243.026 40.3458V30.3376ZM210.412 30.7906H220.784C220.784 28.1525 219.037 25.9715 215.69 25.9715C212.754 25.9715 210.818 27.9675 210.412 30.7906ZM224.875 31.6151V32.6709H210.301C210.301 37.8642 212.529 41.0601 217.44 41.0601C220.527 41.0601 222.606 39.6329 223.834 38.0887L224.91 38.5785C224.094 41.3254 221.528 44.335 216.286 44.335C210.301 44.335 206.767 40.007 206.767 34.6274C206.767 28.0409 210.932 23.6395 216.62 23.6395C222.049 23.6395 224.875 27.1008 224.875 31.6151ZM196.997 23.6395C200.639 23.6395 202.907 25.8205 202.907 29.3607V40.3458C202.907 42.0751 204.173 42.2656 205.886 42.4914V43.9581H196.215V42.4914C197.925 42.2656 199.189 42.0751 199.189 40.3458V30.3376C199.189 27.8518 197.89 26.6858 195.509 26.6858C193.726 26.6858 191.53 27.626 190.193 28.9063V40.3458C190.193 42.0751 191.458 42.2656 193.167 42.4914V43.9581H183.499V42.4914C185.211 42.2656 186.473 42.0751 186.473 40.3458V30.3376C186.473 27.8518 185.173 26.6858 182.793 26.6858C181.008 26.6858 178.816 27.626 177.479 28.9063V40.3458C177.479 42.0751 178.74 42.2656 180.453 42.4914V43.9581H170.785V42.4914C172.496 42.2656 173.756 42.0751 173.756 40.3458V27.7416L170.971 26.4232V25.5198L176.362 23.6395H177.662L177.479 27.2124C178.854 25.445 181.454 23.6395 184.283 23.6395C187.178 23.6395 189.264 24.9919 189.969 27.3648C191.347 25.5198 194.098 23.6395 196.997 23.6395ZM255.346 24.0151H261.147V26.0845H255.346V37.6751C255.346 40.3853 256.5 41.5894 258.768 41.5894C259.692 41.5894 260.436 41.4384 261.119 41.1744L261.566 42.2288C260.636 43.2819 258.892 44.335 256.576 44.335C254.003 44.335 251.628 42.8656 251.628 38.9921V26.0845H249.653V24.7661C251.624 23.5634 252.336 22.1307 254.233 19.7239H255.346V24.0151ZM163.11 24.0151H168.908V26.0845H163.11V37.6751C163.11 40.3853 164.262 41.5894 166.53 41.5894C167.454 41.5894 168.197 41.4384 168.88 41.1744L169.327 42.2288C168.4 43.2819 166.653 44.335 164.337 44.335C161.764 44.335 159.389 42.8656 159.389 38.9921V26.0845H157.416V24.7661C159.387 23.5634 160.097 22.1307 161.994 19.7239H163.11V24.0151ZM148.031 28.5552C149.778 25.4287 151.307 23.6395 153.574 23.6395C154.467 23.6395 155.023 23.8654 155.395 24.1661V27.0654H153.872C152.303 27.0654 150.521 27.3852 148.031 30.3185V40.1962C148.031 42.0751 148.998 42.1894 151.749 42.4914V43.9581H141.339V42.4914C143.048 42.2656 144.314 42.0751 144.314 40.3458V27.7416L141.523 26.4232V25.5198L146.915 23.6395H148.217L148.031 28.5552ZM132.644 39.2914V33.724L126.142 35.792C124.837 36.207 124.094 36.9608 124.094 38.3893C124.094 40.5336 125.433 41.6261 127.477 41.6261C129.671 41.6261 130.897 40.6465 132.644 39.2914ZM136.365 39.0302C136.365 40.6832 137.135 41.5894 138.252 41.5894C138.647 41.5894 138.959 41.5159 139.452 41.3622L139.822 42.5282C138.524 43.8098 137.406 44.335 136.171 44.335C134.235 44.335 133.353 42.9799 132.757 40.9091C131.382 42.4547 129.263 44.335 125.805 44.335C122.124 44.335 120.153 42.1145 120.153 39.1798C120.153 35.6791 122.606 34.8533 125.469 34.0247L132.644 31.8804V31.0886C132.644 28.0029 131.233 25.5933 128.035 25.5933C125.953 25.5933 124.949 26.4613 124.949 28.3811C124.949 28.7552 125.025 29.4328 125.135 30.1852L122.048 30.5607C121.528 30.0355 121.23 29.4328 121.23 28.5307C121.23 25.445 124.577 23.6395 128.742 23.6395C133.315 23.6395 136.365 25.5566 136.365 30.8641V39.0302ZM114.109 34.6274C114.109 30.7117 112.587 26.4954 107.787 26.4954C105.519 26.4954 103.364 27.626 102.098 28.9811V37.4506C102.098 41.0207 104.815 42.1894 107.64 42.1894C111.543 42.1894 114.109 39.4792 114.109 34.6274ZM102.098 42.8288V49.3772C102.098 51.1065 103.364 51.2956 105.075 51.5214V52.9908H95.4071V51.5214C97.1187 51.2956 98.3813 51.1065 98.3813 49.3772V27.7416L95.5935 26.4232V25.5198L100.987 23.6395H102.286L102.098 27.1389C103.701 25.0695 106.302 23.6395 109.2 23.6395C114.926 23.6395 117.938 27.8518 117.938 33.0451C117.938 40.007 113.107 44.335 107.23 44.335C105 44.335 103.29 43.7323 102.098 42.8288ZM74.4341 32.2995H84.9594L79.5838 19.1171L74.4341 32.2995ZM85.8206 34.3839H73.6123L71.9307 38.7417C71.6817 39.3839 71.5021 39.9553 71.5143 40.4492C71.5375 41.7363 72.5905 42.1894 75.5552 42.3023L75.5457 43.9323H66L66.0041 42.3023C67.2014 42.1132 68.0939 41.8846 68.5619 40.7486L78.2804 16.766L77.0192 14H81.8491L93.003 40.7486C93.4696 41.8846 94.3622 42.1132 95.5567 42.3023V43.9323H84.0287V42.3023C86.988 42.1894 88.0043 41.769 88.0301 40.4846C88.0397 39.9934 87.8982 39.4247 87.6124 38.7785L85.8206 34.3839Z" fill="white"/>
</g>
</svg>
